# xmcd
#
# Track frame offsets:
#	150
#	16440
#	27657
#	37240
#	59112
#	72452
#	85237
#	105342
#	119857
#	137000
#	157222
#	172840
#	186490
#	201142
#	217867
#	233722
#	290327
#	303020
#
# Disc length: 4457 seconds
#
# Revision: 0
# Processed by: cddbd v1.5.2PL0 Copyright (c) Steve Scherf et al.
# Submitted via: audiograbber 1.83.01
#
DISCID=0f116712
DTITLE=диажояои - дглотийо памуцгяи мо 7
DYEAR=1900
DGENRE=
TTITLE0=тасиа беяяа - лес тоу аицаиоу та меяа
TTITLE1=тасиа беяяа - йояг поу ужаимеис аяцакеио
TTITLE2=тасиа беяяа - ажгсте ле ма йаицолаи
TTITLE3=тасиа беяяа - лауяидеяоука лоу
TTITLE4=тасиа беяяа - лг ле стекмеис лама
TTITLE5=тасиа беяяа - стгм бяусг тгм йяуобяусг
TTITLE6=басикгс ацяажиытгс - тоу йитсоу г лама йахетаи
TTITLE7=пападопоукоу л - ти евеис яима лоу йаи аяяыстаимеис
TTITLE8=пападопоукоу л - неме поу саи стгм немитиа
TTITLE9=пападопоукоу л - лиа лекавяимг
TTITLE10=пападопоукоу л - ема поуки апо то выяио лас
TTITLE11=пападопоукоу л - коукоуди тгс ломелбасиас
TTITLE12=йабоуяас стахгс - аяистеидгс
TTITLE13=покувяомопоукоу л - лема ле кеме йумгцо
TTITLE14=покувяомопоукоу л - стг яоулекг еимаи ема демтяо
TTITLE15=тфалаяас ц - пот поуяи
TTITLE16=йабоуяас стахгс - сам пгяа то стяати стяати
TTITLE17=йабоуяас стахгс - ле цекасе лиа ваяауцг
EXTD=
EXTT0=
EXTT1=
EXTT2=
EXTT3=
EXTT4=
EXTT5=
EXTT6=
EXTT7=
EXTT8=
EXTT9=
EXTT10=
EXTT11=
EXTT12=
EXTT13=
EXTT14=
EXTT15=
EXTT16=
EXTT17=
PLAYORDER=
